<svg id="Layer_1" data-name="Layer 1" xmlns="http://www.w3.org/2000/svg" xmlns:xlink="http://www.w3.org/1999/xlink" viewBox="0 0 369 289.03"><defs><style>.cls-1{fill:none;}.cls-2{fill:#2a387e;}.cls-3{clip-path:url(#clip-path);}.cls-4{fill:#fff;}</style><clipPath id="clip-path"><rect class="cls-1" x="153" y="96" width="63" height="87"/></clipPath></defs><title>JABKER</title><circle class="cls-2" cx="184" cy="139.5" r="113"/><g class="cls-3"><path class="cls-4" d="M184.31,183a31.16,31.16,0,0,0,31.32-31.1c0-13.33-18.27-40.72-26.84-53.31a5.43,5.43,0,0,0-8.95-.37C171.27,110.81,153,138.57,153,151.53A31.48,31.48,0,0,0,184.31,183Zm-14.16-31.47a14.11,14.11,0,0,0,14.16,14.07,3,3,0,1,1,0,5.92,20,20,0,0,1-20.13-20,2.93,2.93,0,0,1,3-3C169,148.94,170.15,150.05,170.15,151.53Z"/></g></svg>