<svg id="Layer_1" data-name="Layer 1" xmlns="http://www.w3.org/2000/svg" xmlns:xlink="http://www.w3.org/1999/xlink" viewBox="0 0 369 289.03"><defs><style>.cls-1{fill:none;}.cls-2{fill:#2a387e;}.cls-3{clip-path:url(#clip-path);}.cls-4{fill:#fff;}</style><clipPath id="clip-path"><rect class="cls-1" x="142" y="95" width="86" height="77"/></clipPath></defs><title>JABKER</title><circle class="cls-2" cx="184" cy="139.5" r="113"/><g class="cls-3"><path class="cls-4" d="M158.63,95a7.29,7.29,0,0,0-7.3,7.33V133.7h-2A7.29,7.29,0,0,0,142,141V155.3a7.82,7.82,0,0,0,.81,3.26c.41-.41,1.22-.41,1.62-.82a15,15,0,0,0,5.68-2.85,9.71,9.71,0,0,1,11.77-.41,15.37,15.37,0,0,0,8.92,2.85c3.25,0,6.09-1.22,8.93-2.85a9.11,9.11,0,0,1,11,0,15.37,15.37,0,0,0,8.92,2.85,19.12,19.12,0,0,0,8.93-2.85,9.7,9.7,0,0,1,11.76.41,15,15,0,0,0,5.68,2.85,2.09,2.09,0,0,1,1.62.82,7.67,7.67,0,0,0,.82-3.26V141a7.29,7.29,0,0,0-7.31-7.34h-7.3V111.3l3.65,4.07a4.65,4.65,0,0,0,6.9,0,4.7,4.7,0,0,0,0-6.93L212.18,96.22a4.65,4.65,0,0,0-6.9,0l-12.17,12.22a4.7,4.7,0,0,0,0,6.93,4.65,4.65,0,0,0,6.9,0l4.06-4.07v22H185v-31A7.29,7.29,0,0,0,177.7,95Zm29.21,63.56a19.58,19.58,0,0,0,11.76,4.07,21.63,21.63,0,0,0,11.77-4.07,4.32,4.32,0,0,1,5.68.4,17,17,0,0,0,7.7,3.67c2.44.41,4.06,3.26,3.66,5.7s-3.25,4.08-5.68,3.67a24.09,24.09,0,0,1-8.52-3.67,29.94,29.94,0,0,1-14.2,4.08c-4.87,0-8.93-1.63-12.17-2.85l-2.43-1.23L183,169.56a31.54,31.54,0,0,1-12.17,2.85,30,30,0,0,1-14.2-4.08,27.84,27.84,0,0,1-8.52,3.67,5.47,5.47,0,0,1-6.08-3.67c-.41-2.44.81-5.29,3.65-5.7a26.81,26.81,0,0,0,7.71-3.67,4.32,4.32,0,0,1,5.68-.4,20.56,20.56,0,0,0,11.76,4.07,21.66,21.66,0,0,0,11.77-4.07C183.78,157.33,186.22,157.33,187.84,158.56Z"/></g></svg>