<svg id="Layer_1" data-name="Layer 1" xmlns="http://www.w3.org/2000/svg" xmlns:xlink="http://www.w3.org/1999/xlink" viewBox="0 0 369 289.03"><defs><style>.cls-1{fill:none;}.cls-2{fill:#2a387e;}.cls-3{clip-path:url(#clip-path);}.cls-4{fill:#fff;}</style><clipPath id="clip-path"><rect class="cls-1" x="131" y="79" width="108" height="97"/></clipPath></defs><title>JABKER</title><circle class="cls-2" cx="184" cy="139.5" r="113"/><g class="cls-3"><path class="cls-4" d="M185,145.55a5.93,5.93,0,0,0,6.05-6.09v-40l4.75,5.22c2.16,2.18,6,2.18,8.64,0s2.16-6.09,0-8.7L189.32,80.74c-2.16-2.17-6-2.17-8.64,0L166,96c-2.16,2.18-2.16,6.09,0,8.7s6,2.18,8.64,0l4.75-4.78v40C179,142.94,181.54,145.55,185,145.55Zm-3.46,13a25.7,25.7,0,0,1-14.68,4.79c-5.19,0-10.37-2.18-14.69-4.79a5.86,5.86,0,0,0-6.91.44,24.68,24.68,0,0,1-9.51,4.78,6.07,6.07,0,0,0,3,11.75,25.16,25.16,0,0,0,10.8-4.79,34.88,34.88,0,0,0,32.83,1.31,22.15,22.15,0,0,0,3-1.31,22.34,22.34,0,0,0,3,1.31,34.88,34.88,0,0,0,32.83-1.31,42.38,42.38,0,0,0,10.8,4.79c3,.86,6.48-1.31,7.34-4.36a6.31,6.31,0,0,0-4.32-7.39,24.64,24.64,0,0,1-9.5-4.78,6.52,6.52,0,0,0-7.35-.44,25.7,25.7,0,0,1-14.68,4.79c-5.19,0-10.37-2.18-14.69-4.79A7.4,7.4,0,0,0,181.54,158.6Zm-14.68-43.5v42.63a19.56,19.56,0,0,1-11.24-3.91,12.24,12.24,0,0,0-14.68.43,17.25,17.25,0,0,1-6.92,3.48c-1.29.44-2.16.87-3.45,1.31v-34.8a8.89,8.89,0,0,1,9.07-9.14ZM239,124.24V159a29.11,29.11,0,0,0-3.46-1.31,13.1,13.1,0,0,1-6.91-3.48c-4.32-3.48-10.37-3.91-14.69-.43-3.45,2.17-7.34,3.91-11.23,3.91V115.1h27.65C235.11,115.1,239,119.45,239,124.24Z"/></g></svg>