<svg id="Layer_1" data-name="Layer 1" xmlns="http://www.w3.org/2000/svg" xmlns:xlink="http://www.w3.org/1999/xlink" viewBox="0 0 369 289.03"><defs><style>.cls-1{fill:none;}.cls-2{fill:#2a387e;}.cls-3{clip-path:url(#clip-path);}.cls-4{fill:#fff;}</style><clipPath id="clip-path"><rect class="cls-1" x="143" y="98" width="82" height="82"/></clipPath></defs><title>JABKER</title><circle class="cls-2" cx="184" cy="139.5" r="113"/><g class="cls-3"><path class="cls-4" d="M225,135.05c0-2.43-1.82-4-4.25-4h-14a4.16,4.16,0,0,0-4.25,4.26,32.27,32.27,0,0,1-.31,5.46,13.12,13.12,0,0,1-14,12.76c-3-.31-4.86,1.52-4.86,4.55v16.1h-3.95v-55h19.44c-.3.3-.3.61-.61.91-2.12,3.34-4.25,7-6.07,10.33a1.68,1.68,0,0,1-1.52.91,9.56,9.56,0,0,0-10.32,9.72,9.88,9.88,0,1,0,19.74-.31,9.63,9.63,0,0,0-2.43-6.07c3-5.16,6.07-10,9.11-15.19a1.12,1.12,0,0,1,.91-.3h12.75A4.3,4.3,0,0,0,225,114.7v-8.8c0-3.34-1.52-4.86-4.86-4.86H180.66c-.61,0-1.22,0-1.52-.61-.91-1.82-1.82-2.43-3.34-2.43h-9.72a3.5,3.5,0,0,0-3.34,1.82,1.67,1.67,0,0,1-1.52.61H147a4.09,4.09,0,0,0-3.95,4.25v14.58a3.83,3.83,0,0,0,3.95,3.95h8.5a4,4,0,0,0,4-3.95v-.91h2.43v55H151.2a3.24,3.24,0,0,0-.91,6.38h70.46a4.16,4.16,0,0,0,4.25-4.26Zm-6.68,38.27H190.68V159.65c12.76-2.12,18.83-9.72,18.83-22.47h8.81Z"/><path class="cls-4" d="M213.16,148.11a3.3,3.3,0,0,0,3.34-2.43,3.89,3.89,0,0,0,.3-1.82V143a3.37,3.37,0,0,0-3.34-3.34c-1.82,0-3,1.52-3.34,3.34v1.82A3.89,3.89,0,0,0,213.16,148.11Z"/><path class="cls-4" d="M212.85,159.35a3.06,3.06,0,0,0,3.34-1.52,23.28,23.28,0,0,1,.91-2.43h-.3v-.91a3.13,3.13,0,0,0-3.34-3,3.31,3.31,0,0,0-3.34,3v2.13A3.59,3.59,0,0,0,212.85,159.35Z"/><path class="cls-4" d="M198.88,166a3.34,3.34,0,0,0-6.68,0v1.82a3.24,3.24,0,0,0,4.56,2.74c1.82-.61,2.12-2.13,2.12-3.65Z"/><path class="cls-4" d="M205,162.69a3.29,3.29,0,0,0-3.34,2.43,3.77,3.77,0,0,0-.31,1.82v.91c0,1.82,1.52,3,3.34,3.34a3.18,3.18,0,0,0,3.34-3.34V166A3.89,3.89,0,0,0,205,162.69Z"/><path class="cls-4" d="M216.8,166c0-1.82-1.52-3-3.34-3.34a3.37,3.37,0,0,0-3.34,3.34v1.82a3.24,3.24,0,0,0,6.38.61,3.91,3.91,0,0,0,.3-1.82Z"/></g></svg>