<svg id="Layer_1" data-name="Layer 1" xmlns="http://www.w3.org/2000/svg" xmlns:xlink="http://www.w3.org/1999/xlink" viewBox="0 0 369 289.03"><defs><style>.cls-1{fill:none;}.cls-2{fill:#2a387e;}.cls-3{clip-path:url(#clip-path);}.cls-4{fill:#fff;}</style><clipPath id="clip-path"><rect class="cls-1" x="145" y="95" width="99" height="88"/></clipPath></defs><title>JABKER</title><circle class="cls-2" cx="184" cy="139.5" r="113"/><g class="cls-3"><path class="cls-4" d="M153.21,95a8.49,8.49,0,0,0-8.21,8.2v71.6a8.2,8.2,0,0,0,8.21,8.2h16.43V169.2a8.22,8.22,0,0,1,16.43,0V183H201.2a12,12,0,0,1-1.3-5.61v-22a10.74,10.74,0,0,1,5.62-9.49v-4.31a18.93,18.93,0,0,1,5.62-13.37v-25a8.2,8.2,0,0,0-8.21-8.2Zm2.6,41.41a2.49,2.49,0,0,1,2.59-2.59H164a2.5,2.5,0,0,1,2.6,2.59V142a2.5,2.5,0,0,1-2.6,2.59h-5.19a2.49,2.49,0,0,1-2.59-2.59v-5.61Zm19.45-3h5.62a2.5,2.5,0,0,1,2.6,2.59v5.61a2.5,2.5,0,0,1-2.6,2.59h-5.62a2.49,2.49,0,0,1-2.59-2.59v-5.18A2.89,2.89,0,0,1,175.26,133.39Zm13.84,3a2.49,2.49,0,0,1,2.59-2.59h5.62a2.49,2.49,0,0,1,2.59,2.59V142a2.49,2.49,0,0,1-2.59,2.59h-5.62A2.49,2.49,0,0,1,189.1,142Zm-30.27-25h5.62a2.5,2.5,0,0,1,2.6,2.59v5.61a2.5,2.5,0,0,1-2.6,2.59h-5.62a2.49,2.49,0,0,1-2.59-2.59v-5.18A2.43,2.43,0,0,1,158.83,111.39Zm13.84,3a2.49,2.49,0,0,1,2.59-2.59h5.62a2.5,2.5,0,0,1,2.6,2.59V120a2.5,2.5,0,0,1-2.6,2.59h-5.62a2.49,2.49,0,0,1-2.59-2.59Zm19-3h5.62A2.49,2.49,0,0,1,199.9,114v5.61a2.49,2.49,0,0,1-2.59,2.59h-5.62a2.49,2.49,0,0,1-2.59-2.59v-5.18A2.89,2.89,0,0,1,191.69,111.39Zm33.29,25A5.72,5.72,0,0,1,230.6,142v8.2H219.79V142C219.36,138.57,222,136.41,225,136.41Zm-13.84,5.18a13.84,13.84,0,0,1,27.67,0v8.19a5.72,5.72,0,0,1,5.62,5.61v22a5.72,5.72,0,0,1-5.62,5.61H211.14a5.72,5.72,0,0,1-5.62-5.61v-22a5.72,5.72,0,0,1,5.62-5.61Z"/></g></svg>