<svg id="Layer_1" data-name="Layer 1" xmlns="http://www.w3.org/2000/svg" xmlns:xlink="http://www.w3.org/1999/xlink" viewBox="0 0 369 289.03"><defs><style>.cls-1{fill:none;}.cls-2{fill:#2a387e;}.cls-3{clip-path:url(#clip-path);}.cls-4{fill:#fff;}</style><clipPath id="clip-path"><rect class="cls-1" x="149" y="92" width="70" height="93.03"/></clipPath></defs><title>JABKER</title><circle class="cls-2" cx="184" cy="139.5" r="113"/><g class="cls-3"><path class="cls-4" d="M157.8,92a8.82,8.82,0,0,0-8.8,8.78v75.91a8.81,8.81,0,0,0,8.8,8.77h17.61V171A8.81,8.81,0,0,1,193,171v14.47h17.61a8.81,8.81,0,0,0,8.81-8.77V100.78A8.82,8.82,0,0,0,210.63,92Zm3.09,43.88a3,3,0,0,1,3.08-3.07h5.72a2.94,2.94,0,0,1,2.64,3.07v5.71a3,3,0,0,1-3.08,3.07h-5.72a3,3,0,0,1-3.08-3.07v-5.71Zm20.25-3.07h5.72a3,3,0,0,1,3.08,3.07v5.71a3,3,0,0,1-3.08,3.07h-5.72a3,3,0,0,1-3.08-3.07v-5.71A3,3,0,0,1,181.14,132.81Zm14.53,3.07a3,3,0,0,1,3.08-3.07h5.72a3,3,0,0,1,3.08,3.07v5.71a3,3,0,0,1-3.08,3.07h-5.72a3,3,0,0,1-3.08-3.07Zm-32.14-26.33h5.72a2.94,2.94,0,0,1,3.08,2.63v6.15a3,3,0,0,1-3.08,3.07h-5.72a3.76,3.76,0,0,1-2.64-3.07v-6.15A2.84,2.84,0,0,1,163.53,109.55Zm14.53,2.63a2.94,2.94,0,0,1,3.08-2.63h5.72a2.94,2.94,0,0,1,3.08,2.63v6.15a3,3,0,0,1-3.08,3.07h-5.72c-1.76-.44-3.08-1.75-3.08-3.07Zm20.69-2.63h5.72a3,3,0,0,1,3.08,3.07v5.71a3,3,0,0,1-3.08,3.07h-5.72a3,3,0,0,1-3.08-3.07v-6.15A2.94,2.94,0,0,1,198.75,109.55Z"/></g></svg>