<svg id="Layer_1" data-name="Layer 1" xmlns="http://www.w3.org/2000/svg" xmlns:xlink="http://www.w3.org/1999/xlink" viewBox="0 0 369 289.03"><defs><style>.cls-1{fill:none;}.cls-2{fill:#2a387e;}.cls-3{clip-path:url(#clip-path);}.cls-4{fill:#fff;}</style><clipPath id="clip-path"><rect class="cls-1" x="148" y="102" width="74" height="74"/></clipPath></defs><title>JABKER</title><circle class="cls-2" cx="184" cy="139.5" r="113"/><g class="cls-3"><path class="cls-4" d="M187.85,102c1.42.71,2.49,1.07,3.91,1.78,5.34,2.85,7.83,8.89,6.76,15.3a10.52,10.52,0,0,0,.71,5.69,34.87,34.87,0,0,0,4.63,7.83c1.06,1.78.71,3.2-.72,4.27-3.2,2.13-6.4,3.91-10,6-2.84-4.62-5-8.53-7.82-13.52-3.56,6.05-6.76,11.39-9.61,16.73,10,4.26,23.84,1.06,32.38-7.48a15.28,15.28,0,0,0,2.13-2.49c2.13-2.49,5-2.84,7.12-1.06,2.49,2.49,1.77,4.62-.36,7.11a41.1,41.1,0,0,1-21.7,13.52,35.16,35.16,0,0,1-21-.71c-2.85-.71-3.92-.36-5,2.13-.72,1.43-1.43,2.49-2.14,3.92-2.84,6.05-6.76,11-13.52,13.16-.35,0-.71.71-1.42,1.07h-3.56V162.84c3.2-5.34,6.41-11,9.61-16-1.78-2.14-3.56-3.92-5-5.7-1.43-2.13-1.43-4.26.71-5.69,1.07-1.42,3.2-1.42,5.33.36a12.94,12.94,0,0,1,2.85,3.2c2.85-5,5.69-9.61,8.18-14.23a10.53,10.53,0,0,0,.72-5.69,15.21,15.21,0,0,1,6-14.59,32.59,32.59,0,0,1,5-2.49Zm1.78,13.16a4.38,4.38,0,0,0-4.63-3.91c-2.85,0-5,2.13-4.62,4.63,0,2.84,1.77,4.26,4.62,4.62C187.49,120.5,189.63,118.37,189.63,115.16Z"/><path class="cls-4" d="M218.09,176c-.72-.36-1.07-1.42-1.78-1.42-7.83-2.14-10.68-8.54-13.88-15.3,3.92-2.49,7.83-4.63,12.1-7.47,2.49,3.91,4.62,7.82,7.11,11.74V176Z"/></g></svg>