<svg id="Layer_1" data-name="Layer 1" xmlns="http://www.w3.org/2000/svg" xmlns:xlink="http://www.w3.org/1999/xlink" viewBox="0 0 369 289.03"><defs><style>.cls-1{fill:none;}.cls-2{fill:#2a387e;}.cls-3{clip-path:url(#clip-path);}.cls-4{fill:#fff;}</style><clipPath id="clip-path"><rect class="cls-1" x="142" y="93" width="97" height="83"/></clipPath></defs><title>JABKER</title><circle class="cls-2" cx="184" cy="139.5" r="113"/><g class="cls-3"><path class="cls-4" d="M193.14,101.06A8.12,8.12,0,1,1,185,93,8.11,8.11,0,0,1,193.14,101.06Zm-49.52,25.38a4,4,0,0,1,5.28-2l3.25,1.21,4-6.45a15.56,15.56,0,0,1,13-7.25,20.49,20.49,0,0,1,19.08,13.7L194,143l13.39,5.64L213,141c1.22-1.61,2.85-2.42,4.47-2,1.62,0,3.25,1.21,4.46,2.42l16.24,26.59c.81,1.61,1.22,3.63,0,5.24a5.64,5.64,0,0,1-4.87,2.82H190.7a4.67,4.67,0,0,1-4.46-2.42,6,6,0,0,1-.41-5.23l2.84-5.24a5.63,5.63,0,0,1,4.87-2.82h5.28l3.65-4.84-56.82-23.37A4.62,4.62,0,0,1,143.62,126.44Zm13.8,15.31-5.27-2.41-2,5.64L142,169.15a5.55,5.55,0,0,0,3.25,6.85c2.84.81,6.08-.4,6.9-3.22l6.08-18.54,10.15,4.44v12.48a5.28,5.28,0,0,0,10.55,0V155.05a5.23,5.23,0,0,0-3.24-4.84Z"/></g></svg>