<svg id="Layer_1" data-name="Layer 1" xmlns="http://www.w3.org/2000/svg" xmlns:xlink="http://www.w3.org/1999/xlink" viewBox="0 0 369 289.03"><defs><style>.cls-1{fill:none;}.cls-2{fill:#2a387e;}.cls-3{clip-path:url(#clip-path);}.cls-4{fill:#fff;}</style><clipPath id="clip-path"><rect class="cls-1" x="150" y="104" width="70" height="70"/></clipPath></defs><title>JABKER</title><circle class="cls-2" cx="184" cy="139.5" r="113"/><g class="cls-3"><path class="cls-4" d="M184.84,104a4.33,4.33,0,0,0-4.43,4.43v36.11a9.21,9.21,0,0,0-4.44,7.61,8.87,8.87,0,0,0,17.74,0,9.23,9.23,0,0,0-4.43-7.61V108.43A4.33,4.33,0,0,0,184.84,104Zm-28.19,17.42h15.21v30.73a13,13,0,0,0,26,0V121.42h15.52a6.69,6.69,0,0,1,6.65,6.65v39.28a6.69,6.69,0,0,1-6.65,6.65h-56.7a6.69,6.69,0,0,1-6.65-6.65V128.07A6.49,6.49,0,0,1,156.65,121.42Z"/></g></svg>