<svg id="Layer_1" data-name="Layer 1" xmlns="http://www.w3.org/2000/svg" xmlns:xlink="http://www.w3.org/1999/xlink" viewBox="0 0 369 289.03"><defs><style>.cls-1{fill:none;}.cls-2{fill:#2a387e;}.cls-3{clip-path:url(#clip-path);}.cls-4{fill:#fff;}</style><clipPath id="clip-path"><rect class="cls-1" x="131" y="104" width="107" height="71"/></clipPath></defs><title>JABKER</title><circle class="cls-2" cx="184" cy="139.5" r="113"/><g class="cls-3"><path class="cls-4" d="M181.08,105.28a6.57,6.57,0,0,1,6.84,0A25.61,25.61,0,0,0,202.48,110c5.13,0,10.27-2.14,14.55-4.71,2.14-1.71,5.13-1.28,7.27.43a24.53,24.53,0,0,0,9.42,4.71,6,6,0,1,1-3,11.54,27.71,27.71,0,0,1-10.7-4.7,37.2,37.2,0,0,1-17.54,4.7,36.83,36.83,0,0,1-15-3.42,20.87,20.87,0,0,1-3-1.28,20.87,20.87,0,0,1-3,1.28,36.83,36.83,0,0,1-15,3.42c-6,0-12-2.14-17.54-5.13a27.86,27.86,0,0,1-10.7,4.71,6,6,0,1,1-3-11.55,24.53,24.53,0,0,0,9.42-4.71,6.41,6.41,0,0,1,7.7,0A25.6,25.6,0,0,0,167,110C171.66,110,176.8,107.85,181.08,105.28Zm6.84,53a25.67,25.67,0,0,0,14.56,4.7c5.13,0,10.27-2.13,14.55-4.7,2.14-1.71,5.13-1.28,7.27.43a24.37,24.37,0,0,0,9.42,4.7,6,6,0,1,1-3,11.55,27.56,27.56,0,0,1-10.7-4.71,34.79,34.79,0,0,1-32.52,1.29,20.79,20.79,0,0,1-3-1.29,20.79,20.79,0,0,1-3,1.29A34.79,34.79,0,0,1,149,170.29a41.61,41.61,0,0,1-10.7,4.71,6.22,6.22,0,0,1-7.28-4.28c-.86-3,1.28-6.41,4.28-7.27a24.37,24.37,0,0,0,9.42-4.7,6.48,6.48,0,0,1,7.27-.43,25.67,25.67,0,0,0,14.55,4.7c5.14,0,10.28-2.13,14.56-4.7A6.57,6.57,0,0,1,187.92,158.32Zm0-26.52a25.69,25.69,0,0,0,14.56,4.71c5.13,0,10.27-2.14,14.55-4.71,2.14-1.71,5.13-1.28,7.27.43a24.37,24.37,0,0,0,9.42,4.7,6,6,0,1,1-3,11.55,27.71,27.71,0,0,1-10.7-4.7,37.2,37.2,0,0,1-17.54,4.7,36.83,36.83,0,0,1-15-3.42,20.87,20.87,0,0,1-3-1.28,20.87,20.87,0,0,1-3,1.28,36.83,36.83,0,0,1-15,3.42,37.2,37.2,0,0,1-17.54-4.7,42,42,0,0,1-10.7,4.7,6.52,6.52,0,0,1-7.28-4.7,6.2,6.2,0,0,1,4.28-7.27,24.53,24.53,0,0,0,9.42-4.71,7.16,7.16,0,0,1,7.7,0A25.68,25.68,0,0,0,167,136.51c5.14,0,10.27-2.14,14.55-4.71A5.84,5.84,0,0,1,187.92,131.8Z"/></g></svg>