<svg id="Layer_1" data-name="Layer 1" xmlns="http://www.w3.org/2000/svg" xmlns:xlink="http://www.w3.org/1999/xlink" viewBox="0 0 369 289.03"><defs><style>.cls-1{fill:none;}.cls-2{fill:#2a387e;}.cls-3{clip-path:url(#clip-path);}.cls-4{fill:#fff;}</style><clipPath id="clip-path"><rect class="cls-1" x="125" y="86" width="115" height="89"/></clipPath></defs><title>JABKER</title><circle class="cls-2" cx="184" cy="139.5" r="113"/><g class="cls-3"><path class="cls-4" d="M188.73,162.55v12.91h40.19A11.23,11.23,0,0,0,240,164.39a10.13,10.13,0,0,0-.46-3.68L216,94.3A13.09,13.09,0,0,0,203.51,86H188.73V98.91a6.47,6.47,0,0,1-12.93,0V86H161a12.93,12.93,0,0,0-12,8.3l-23.56,66.41a10.13,10.13,0,0,0-.46,3.68,11.23,11.23,0,0,0,11.08,11.07h40.19V162.55m12.46-38.28v12.92a6.47,6.47,0,0,1-12.93,0V124.27a6.47,6.47,0,0,1,12.93,0Z"/></g></svg>