<svg id="Layer_1" data-name="Layer 1" xmlns="http://www.w3.org/2000/svg" xmlns:xlink="http://www.w3.org/1999/xlink" viewBox="0 0 369 289.03"><defs><style>.cls-1{fill:none;}.cls-2{fill:#2a387e;}.cls-3{clip-path:url(#clip-path);}.cls-4{fill:#fff;}</style><clipPath id="clip-path"><rect class="cls-1" x="127" y="94" width="115" height="83"/></clipPath></defs><title>JABKER</title><circle class="cls-2" cx="184" cy="139.5" r="113"/><g class="cls-3"><path class="cls-4" d="M127,100.23A6.38,6.38,0,0,1,133.23,94H235.36a6.11,6.11,0,0,1,6.22,6.23v7a5.67,5.67,0,0,1-5.81,5.81,13.38,13.38,0,0,0-13.28,13.28v24.9a13.44,13.44,0,0,0-7.48,2.49c-3.73,2.49-7.88,4.15-11.62,4.15V132.18a19.1,19.1,0,0,0-38.2,0v25.31a20.88,20.88,0,0,1-11.62-4.14,12.39,12.39,0,0,0-7.47-2.5V126a13.38,13.38,0,0,0-13.29-13.28,5.14,5.14,0,0,1-5.81-5.4Zm61,58.92a6.22,6.22,0,0,0-7.47,0c-4.57,2.91-10,5.4-15.37,5.4a28.2,28.2,0,0,1-15.36-5A6.26,6.26,0,0,0,142,160a25.09,25.09,0,0,1-10,5,6.19,6.19,0,0,0,2.91,12,38.62,38.62,0,0,0,11.62-5c5.81,2.91,12.46,5,18.68,5s12-2.07,16.2-3.74a17.46,17.46,0,0,0,2.9-1.66,10.55,10.55,0,0,1,2.91,1.66c4.15,1.67,9.55,3.74,16.19,3.74s12.87-2.07,18.68-5a38.58,38.58,0,0,0,11.63,5c3.32.83,7.05-1.24,7.47-4.57.83-3.31-1.25-7.05-4.57-7.47a22.65,22.65,0,0,1-10-5,6.24,6.24,0,0,0-7.89-.42c-4.57,2.91-10,5.39-15.36,5.39A40.57,40.57,0,0,1,188,159.15Z"/></g></svg>