<svg id="Layer_1" data-name="Layer 1" xmlns="http://www.w3.org/2000/svg" xmlns:xlink="http://www.w3.org/1999/xlink" viewBox="0 0 369 289.03"><defs><style>.cls-1{fill:none;}.cls-2{fill:#2a387e;}.cls-3{clip-path:url(#clip-path);}.cls-4{fill:#fff;}</style><clipPath id="clip-path"><rect class="cls-1" x="154" y="98" width="62" height="82"/></clipPath></defs><title>JABKER</title><circle class="cls-2" cx="184" cy="139.5" r="113"/><g class="cls-3"><path class="cls-4" d="M159.31,98a5.06,5.06,0,0,0-3.89,1.76,5.25,5.25,0,0,0-1.42,3.87l4.61,64.4a12.76,12.76,0,0,0,12.75,12h26.93A12.76,12.76,0,0,0,211,168l4.61-64.4a5.29,5.29,0,0,0-1.42-3.87A4.37,4.37,0,0,0,210.69,98Zm8.15,47.51-2.83-37.3H205l-2.84,37.3-2.12,1.06a10.67,10.67,0,0,1-10.28,0,10.65,10.65,0,0,0-10.27,0,10.67,10.67,0,0,1-10.28,0Zm27.64-16.19c0,5.28-4.61,9.5-10.28,9.5s-10.27-4.22-10.27-9.5c0-3.87,5.31-11.26,8.5-15.13a2.79,2.79,0,0,1,3.9,0C189.78,118.06,195.1,125.45,195.1,129.32Z"/></g></svg>