<svg width="189" height="93" viewBox="0 0 189 93" fill="none" xmlns="http://www.w3.org/2000/svg">
<g filter="url(#filter0_d_437_191)">
<path d="M-2 -1H180V64C180 75.0457 171.046 84 160 84H-2V-1Z" fill="white"/>
</g>
<path fill-rule="evenodd" clip-rule="evenodd" d="M43.7817 34.8508L64.844 24.5383V51.9088L45.6379 61.3342V52.3894L56.0365 47.2886V37.9741L43.7817 43.9805V34.8508Z" fill="url(#paint0_linear_437_191)"/>
<path fill-rule="evenodd" clip-rule="evenodd" d="M26 24.4623L45.3008 15L55.0364 19.6757L34.7886 29.6001V47.5267L26 51.8328V24.4623Z" fill="url(#paint1_linear_437_191)"/>
<path d="M26 66.6362H27.8183V72.1621H31.0004V73.4927H26V66.6362Z" fill="#2C3580"/>
<path d="M47.4599 66.9674V68.3719C47.0811 68.2056 46.7212 68.0947 46.3614 68.0023C46.0015 67.9284 45.6795 67.8729 45.3575 67.8729C44.9408 67.8729 44.6377 67.9284 44.4294 68.0393C44.221 68.1501 44.1263 68.335 44.1263 68.5567C44.1263 68.7415 44.2021 68.8709 44.3347 68.9633C44.4673 69.0557 44.7135 69.1481 45.0734 69.222L45.8121 69.3699C46.5697 69.5177 47.1001 69.7395 47.4221 70.0352C47.7441 70.3309 47.8956 70.7745 47.8956 71.3289C47.8956 72.0681 47.6683 72.6041 47.2326 72.9552C46.797 73.3064 46.1151 73.4912 45.206 73.4912C44.7703 73.4912 44.3347 73.4542 43.918 73.3803C43.4823 73.3064 43.0467 73.177 42.6111 73.0292V71.5876C43.0467 71.8094 43.4634 71.9757 43.8612 72.0866C44.2589 72.1975 44.6567 72.2529 45.0355 72.2529C45.4143 72.2529 45.7174 72.1975 45.9068 72.0681C46.1151 71.9388 46.2098 71.7724 46.2098 71.5322C46.2098 71.3289 46.1341 71.1626 46.0015 71.0517C45.8689 70.9408 45.5848 70.8299 45.1681 70.756L44.4862 70.6081C43.8043 70.4603 43.3119 70.2385 42.9899 69.9243C42.6679 69.6102 42.5164 69.2036 42.5164 68.6676C42.5164 68.0023 42.7436 67.5033 43.1793 67.1522C43.6149 66.801 44.24 66.6162 45.0544 66.6162C45.4333 66.6162 45.8121 66.6347 46.2098 66.6901C46.6265 66.7641 47.0432 66.8565 47.4599 66.9674Z" fill="#2C3580"/>
<path d="M59.0505 66.6377H62.0621C62.9524 66.6377 63.6532 66.841 64.1267 67.2291C64.6002 67.6172 64.8465 68.1716 64.8465 68.8924C64.8465 69.6132 64.6002 70.1676 64.1267 70.5557C63.6532 70.9438 62.9524 71.1471 62.0621 71.1471H60.8689V73.5312H59.0505V66.6377ZM60.8689 67.9129V69.8349H61.8727C62.2326 69.8349 62.4978 69.7425 62.6872 69.5762C62.8766 69.4099 62.9713 69.1696 62.9713 68.8739C62.9713 68.5597 62.8766 68.338 62.6872 68.1716C62.4978 68.0053 62.2137 67.9314 61.8727 67.9314H60.8689V67.9129Z" fill="#2C3580"/>
<path d="M79.4076 31.448C78.9531 31.6513 78.4985 31.8176 78.025 31.9285C77.5514 32.0394 77.04 32.0948 76.5286 32.0948C75.3732 32.0948 74.4641 31.7807 73.7822 31.1523C73.1003 30.5239 72.7783 29.6738 72.7783 28.5834C72.7783 27.493 73.1193 26.6429 73.8011 26.0146C74.483 25.3862 75.43 25.072 76.6233 25.072C77.0779 25.072 77.5325 25.109 77.9492 25.2014C78.3659 25.2938 78.7637 25.4047 79.1425 25.571V26.9756C78.7637 26.7538 78.3659 26.606 77.9871 26.4951C77.6083 26.3842 77.2294 26.3287 76.8317 26.3287C76.1119 26.3287 75.5626 26.532 75.1838 26.9201C74.805 27.3082 74.5967 27.8627 74.5967 28.5834C74.5967 29.3042 74.7861 29.8586 75.1459 30.2467C75.5248 30.6348 76.0362 30.8381 76.737 30.8381C76.9264 30.8381 77.0969 30.8196 77.2484 30.8012C77.3999 30.7827 77.5514 30.7457 77.684 30.6903V29.3781H76.5854V28.2138H79.4076V31.448Z" fill="#2A387E"/>
<path d="M90.4719 30.7092H87.6686L87.233 31.9474H85.4336L88.0096 25.1833H90.1499L92.7258 31.9474H90.9265L90.4719 30.7092ZM88.1232 29.4525H90.0173L89.0703 26.7542L88.1232 29.4525Z" fill="#2A387E"/>
<path d="M97.3462 25.1836H103.748V26.4958H101.456V31.9477H99.6759V26.4958H97.3651V25.1836H97.3462Z" fill="#2A387E"/>
<path d="M109.938 25.1836H114.768V26.4958H111.737V27.7525H114.597V29.0646H111.737V30.617H114.882V31.9292H109.957V25.1836H109.938Z" fill="#2A387E"/>
<path d="M121.724 25.1833H123.731L126.251 29.8221V25.1833H127.955V31.9474H125.966L123.447 27.3087V31.9474H121.743V25.1833H121.724Z" fill="#2A387E"/>
<path d="M139.794 25.3873V26.8289C139.415 26.6625 139.036 26.5332 138.676 26.4593C138.316 26.3668 137.975 26.3299 137.653 26.3299C137.218 26.3299 136.914 26.3853 136.706 26.4962C136.498 26.6071 136.403 26.7919 136.403 27.0322C136.403 27.217 136.479 27.3463 136.611 27.4572C136.744 27.5496 136.99 27.642 137.369 27.716L138.127 27.8638C138.903 28.0117 139.453 28.2519 139.775 28.5476C140.097 28.8618 140.267 29.2869 140.267 29.8598C140.267 30.599 140.04 31.1535 139.585 31.5231C139.131 31.8927 138.43 32.0775 137.502 32.0775C137.066 32.0775 136.611 32.0405 136.176 31.9481C135.74 31.8742 135.286 31.7448 134.85 31.5785V30.1C135.286 30.3218 135.721 30.5066 136.138 30.6175C136.555 30.7284 136.952 30.7838 137.331 30.7838C137.729 30.7838 138.013 30.7284 138.221 30.599C138.43 30.4697 138.524 30.2848 138.524 30.0631C138.524 29.8598 138.449 29.6934 138.316 29.5826C138.184 29.4717 137.899 29.3608 137.464 29.2684L136.763 29.1205C136.062 28.9727 135.57 28.7509 135.248 28.4182C134.926 28.1041 134.774 27.679 134.774 27.1431C134.774 26.4777 135.001 25.9418 135.437 25.5906C135.873 25.2395 136.517 25.0547 137.369 25.0547C137.748 25.0547 138.146 25.0916 138.543 25.1471C138.941 25.1841 139.358 25.2765 139.794 25.3873Z" fill="#2A387E"/>
<path d="M147.103 25.1836H148.883V31.9477H147.103V25.1836Z" fill="#2A387E"/>
<path d="M73.2981 35.1265H75.0785V37.6029L77.6545 35.1265H79.738L76.4044 38.3237L80.0979 41.8905H77.8629L75.0975 39.2293V41.8905H73.317V35.1265H73.2981Z" fill="url(#paint2_linear_437_191)"/>
<path d="M95.2146 40.6721H92.4113L91.9757 41.9103H90.1763L92.7522 35.1462H94.8926L97.4685 41.9103H95.6691L95.2146 40.6721ZM92.8659 39.4154H94.76L93.8129 36.7171L92.8659 39.4154Z" fill="url(#paint3_linear_437_191)"/>
<path d="M110.476 39.3414V41.9103H108.696V35.1462H111.423C112.332 35.1462 113.014 35.2941 113.431 35.5898C113.847 35.8855 114.075 36.366 114.075 37.0128C114.075 37.4564 113.961 37.826 113.734 38.1217C113.507 38.4174 113.185 38.6207 112.73 38.7501C112.976 38.8055 113.185 38.9349 113.393 39.1197C113.601 39.3045 113.791 39.6002 113.98 39.9883L114.946 41.9103H113.033L112.181 40.2285C112.01 39.8959 111.84 39.6556 111.669 39.5263C111.499 39.3969 111.253 39.3414 110.968 39.3414H110.476ZM111.234 38.1402C111.612 38.1402 111.878 38.0663 112.048 37.9369C112.219 37.8075 112.294 37.5857 112.294 37.2716C112.294 36.9574 112.219 36.7356 112.048 36.6062C111.878 36.4769 111.612 36.403 111.234 36.403H110.476V38.1402H111.234Z" fill="url(#paint4_linear_437_191)"/>
<path d="M124.857 35.1265H126.808L128.38 37.5475L129.952 35.1265H131.922L129.27 39.0445V41.8905H127.489V39.0445L124.857 35.1265Z" fill="url(#paint5_linear_437_191)"/>
<path d="M146.335 40.6721H143.531L143.096 41.9103H141.296L143.872 35.1462H146.013L148.589 41.9103H146.789L146.335 40.6721ZM143.986 39.4154H145.88L144.933 36.7171L143.986 39.4154Z" fill="url(#paint6_linear_437_191)"/>
<path d="M73.0298 45.3818H74.8102V47.8583L77.3862 45.3818H79.4697L76.1361 48.5791L79.8296 52.1459H77.5945L74.8292 49.4846V52.1459H73.0487V45.3818H73.0298Z" fill="#2A387E"/>
<path d="M84.0887 45.2537C85.2062 45.2537 86.0775 45.5678 86.7026 46.1962C87.3276 46.8246 87.6496 47.6747 87.6496 48.7836C87.6496 49.8739 87.3276 50.7425 86.7026 51.3524C86.0775 51.9808 85.2062 52.295 84.0887 52.295C82.9712 52.295 82.0999 51.9808 81.4749 51.3524C80.8498 50.7241 80.5278 49.8739 80.5278 48.7836C80.5278 47.6932 80.8498 46.8246 81.4749 46.1962C82.1189 45.5678 82.9902 45.2537 84.0887 45.2537ZM84.0887 46.5104C83.5394 46.5104 83.1227 46.7137 82.8197 47.1018C82.5166 47.4899 82.3651 48.0443 82.3651 48.7651C82.3651 49.4674 82.5166 50.0218 82.8197 50.4284C83.1227 50.8165 83.5394 51.0198 84.0887 51.0198C84.638 51.0198 85.0547 50.8165 85.3578 50.4284C85.6608 50.0403 85.8123 49.4858 85.8123 48.7651C85.8123 48.0443 85.6608 47.4899 85.3578 47.1018C85.0737 46.7137 84.638 46.5104 84.0887 46.5104Z" fill="#2A387E"/>
<path d="M89.9622 45.3818H91.951L94.4701 50.0206V45.3818H96.1748V52.1459H94.186L91.6668 47.5072V52.1459H89.9622V45.3818Z" fill="#2A387E"/>
<path d="M103.713 45.5863V47.0278C103.334 46.8615 102.955 46.7322 102.595 46.6582C102.235 46.5658 101.894 46.5289 101.572 46.5289C101.137 46.5289 100.834 46.5843 100.625 46.6952C100.417 46.8061 100.322 46.9909 100.322 47.2311C100.322 47.416 100.398 47.5453 100.531 47.6562C100.663 47.7486 100.909 47.841 101.288 47.9149L102.046 48.0628C102.822 48.2106 103.372 48.4509 103.694 48.7466C104.016 49.0423 104.186 49.4858 104.186 50.0587C104.186 50.798 103.959 51.3524 103.504 51.722C103.05 52.0917 102.349 52.2765 101.421 52.2765C100.985 52.2765 100.531 52.2395 100.095 52.1471C99.6594 52.0732 99.2048 51.9438 98.7691 51.7775V50.299C99.2048 50.5208 99.6404 50.7056 100.057 50.8165C100.474 50.9274 100.872 50.9828 101.25 50.9828C101.648 50.9828 101.932 50.9274 102.141 50.798C102.349 50.6686 102.444 50.4838 102.444 50.262C102.444 50.0587 102.368 49.8924 102.235 49.7815C102.103 49.6706 101.819 49.5598 101.383 49.4674L100.682 49.3195C99.9813 49.1717 99.4889 48.9499 99.1669 48.6172C98.8449 48.303 98.6934 47.878 98.6934 47.342C98.6934 46.6767 98.9207 46.1408 99.3563 45.7896C99.8109 45.42 100.436 45.2537 101.288 45.2537C101.667 45.2537 102.065 45.2906 102.463 45.3461C102.86 45.383 103.277 45.4754 103.713 45.5863Z" fill="#2A387E"/>
<path d="M105.874 45.3818H112.276V46.694H109.984V52.1459H108.203V46.694H105.892V45.3818H105.874Z" fill="#2A387E"/>
<path d="M115.932 49.577V52.1459H114.152V45.3818H116.879C117.788 45.3818 118.47 45.5297 118.887 45.8254C119.304 46.1211 119.531 46.6016 119.531 47.2484C119.531 47.692 119.417 48.0616 119.19 48.3573C118.963 48.653 118.641 48.8563 118.186 48.9857C118.432 49.0411 118.641 49.1705 118.849 49.3553C119.038 49.5401 119.247 49.8358 119.436 50.2239L120.402 52.1459H118.489L117.637 50.4641C117.466 50.1315 117.296 49.8912 117.125 49.7619C116.955 49.6325 116.709 49.577 116.425 49.577H115.932ZM116.671 48.3758C117.05 48.3758 117.315 48.3019 117.485 48.1725C117.656 48.0431 117.731 47.8213 117.731 47.5072C117.731 47.193 117.656 46.9712 117.485 46.8418C117.315 46.7125 117.05 46.6386 116.671 46.6386H115.913V48.3758H116.671Z" fill="#2A387E"/>
<path d="M122.406 45.3818H124.187V49.4477C124.187 50.0021 124.282 50.4087 124.471 50.6489C124.66 50.8892 124.963 51.0186 125.38 51.0186C125.816 51.0186 126.119 50.9077 126.308 50.6489C126.498 50.4087 126.592 50.0021 126.592 49.4477V45.3818H128.373V49.4477C128.373 50.4087 128.127 51.111 127.634 51.5915C127.142 52.0535 126.384 52.2938 125.38 52.2938C124.376 52.2938 123.619 52.0535 123.126 51.5915C122.634 51.1295 122.387 50.4087 122.387 49.4477V45.3818H122.406Z" fill="#2A387E"/>
<path d="M131.107 45.3818H132.888V47.8583L135.464 45.3818H137.547L134.213 48.5791L137.907 52.1459H135.672L132.907 49.4846V52.1459H131.126V45.3818H131.107Z" fill="#2A387E"/>
<path d="M144.247 45.5863V47.0278C143.868 46.8615 143.489 46.7322 143.13 46.6582C142.77 46.5658 142.429 46.5289 142.107 46.5289C141.671 46.5289 141.368 46.5843 141.16 46.6952C140.951 46.8061 140.857 46.9909 140.857 47.2311C140.857 47.416 140.932 47.5453 141.065 47.6562C141.198 47.7671 141.444 47.841 141.823 47.9149L142.58 48.0628C143.357 48.2106 143.906 48.4509 144.228 48.7466C144.55 49.0608 144.721 49.4858 144.721 50.0587C144.721 50.798 144.493 51.3524 144.039 51.722C143.584 52.0917 142.883 52.2765 141.955 52.2765C141.52 52.2765 141.065 52.2395 140.629 52.1471C140.194 52.0732 139.739 51.9438 139.304 51.7775V50.299C139.739 50.5208 140.175 50.7056 140.592 50.8165C141.008 50.9274 141.406 50.9828 141.785 50.9828C142.183 50.9828 142.467 50.9274 142.675 50.798C142.883 50.6686 142.978 50.4838 142.978 50.262C142.978 50.0587 142.902 49.8924 142.77 49.7815C142.637 49.6706 142.353 49.5598 141.917 49.4674L141.217 49.3195C140.516 49.1717 140.023 48.9499 139.701 48.6172C139.379 48.303 139.228 47.878 139.228 47.342C139.228 46.6767 139.455 46.1408 139.891 45.7896C140.345 45.42 140.97 45.2537 141.823 45.2537C142.202 45.2537 142.599 45.2906 142.997 45.3461C143.395 45.383 143.811 45.4754 144.247 45.5863Z" fill="#2A387E"/>
<path d="M147.219 45.3818H149V52.1459H147.219V45.3818Z" fill="#2A387E"/>
<defs>
<filter id="filter0_d_437_191" x="-3" y="-2" width="192" height="95" filterUnits="userSpaceOnUse" color-interpolation-filters="sRGB">
<feFlood flood-opacity="0" result="BackgroundImageFix"/>
<feColorMatrix in="SourceAlpha" type="matrix" values="0 0 0 0 0 0 0 0 0 0 0 0 0 0 0 0 0 0 127 0" result="hardAlpha"/>
<feOffset dx="4" dy="4"/>
<feGaussianBlur stdDeviation="2.5"/>
<feComposite in2="hardAlpha" operator="out"/>
<feColorMatrix type="matrix" values="0 0 0 0 0 0 0 0 0 0 0 0 0 0 0 0 0 0 0.25 0"/>
<feBlend mode="normal" in2="BackgroundImageFix" result="effect1_dropShadow_437_191"/>
<feBlend mode="normal" in="SourceGraphic" in2="effect1_dropShadow_437_191" result="shape"/>
</filter>
<linearGradient id="paint0_linear_437_191" x1="43.781" y1="42.9324" x2="64.8438" y2="42.9324" gradientUnits="userSpaceOnUse">
<stop offset="0.0805217" stop-color="#001C3B"/>
<stop offset="0.1643" stop-color="#002349"/>
<stop offset="0.4891" stop-color="#003C79"/>
<stop offset="0.7367" stop-color="#004B98"/>
<stop offset="0.876" stop-color="#0051A3"/>
</linearGradient>
<linearGradient id="paint1_linear_437_191" x1="26" y1="33.42" x2="55.0403" y2="33.42" gradientUnits="userSpaceOnUse">
<stop stop-color="#810000"/>
<stop offset="0.0799833" stop-color="#860101"/>
<stop offset="0.1788" stop-color="#950304"/>
<stop offset="0.2874" stop-color="#AF0809"/>
<stop offset="0.4031" stop-color="#D20D11"/>
<stop offset="0.5234" stop-color="#FE151A"/>
<stop offset="0.5258" stop-color="#FF151A"/>
<stop offset="0.6156" stop-color="#EC0F12"/>
<stop offset="0.761" stop-color="#D30708"/>
<stop offset="0.8934" stop-color="#C30202"/>
<stop offset="1" stop-color="#BE0000"/>
</linearGradient>
<linearGradient id="paint2_linear_437_191" x1="73.2997" y1="38.5164" x2="80.0883" y2="38.5164" gradientUnits="userSpaceOnUse">
<stop stop-color="#810000"/>
<stop offset="0.0799833" stop-color="#860101"/>
<stop offset="0.1788" stop-color="#950304"/>
<stop offset="0.2874" stop-color="#AF0809"/>
<stop offset="0.4031" stop-color="#D20D11"/>
<stop offset="0.5234" stop-color="#FE151A"/>
<stop offset="0.5258" stop-color="#FF151A"/>
<stop offset="0.6156" stop-color="#EC0F12"/>
<stop offset="0.761" stop-color="#D30708"/>
<stop offset="0.8934" stop-color="#C30202"/>
<stop offset="1" stop-color="#BE0000"/>
</linearGradient>
<linearGradient id="paint3_linear_437_191" x1="90.1738" y1="38.5177" x2="97.4459" y2="38.5177" gradientUnits="userSpaceOnUse">
<stop stop-color="#810000"/>
<stop offset="0.0799833" stop-color="#860101"/>
<stop offset="0.1788" stop-color="#950304"/>
<stop offset="0.2874" stop-color="#AF0809"/>
<stop offset="0.4031" stop-color="#D20D11"/>
<stop offset="0.5234" stop-color="#FE151A"/>
<stop offset="0.5258" stop-color="#FF151A"/>
<stop offset="0.6156" stop-color="#EC0F12"/>
<stop offset="0.761" stop-color="#D30708"/>
<stop offset="0.8934" stop-color="#C30202"/>
<stop offset="1" stop-color="#BE0000"/>
</linearGradient>
<linearGradient id="paint4_linear_437_191" x1="108.686" y1="38.5177" x2="114.95" y2="38.5177" gradientUnits="userSpaceOnUse">
<stop stop-color="#810000"/>
<stop offset="0.0799833" stop-color="#860101"/>
<stop offset="0.1788" stop-color="#950304"/>
<stop offset="0.2874" stop-color="#AF0809"/>
<stop offset="0.4031" stop-color="#D20D11"/>
<stop offset="0.5234" stop-color="#FE151A"/>
<stop offset="0.5258" stop-color="#FF151A"/>
<stop offset="0.6156" stop-color="#EC0F12"/>
<stop offset="0.761" stop-color="#D30708"/>
<stop offset="0.8934" stop-color="#C30202"/>
<stop offset="1" stop-color="#BE0000"/>
</linearGradient>
<linearGradient id="paint5_linear_437_191" x1="124.856" y1="38.5164" x2="131.933" y2="38.5164" gradientUnits="userSpaceOnUse">
<stop stop-color="#810000"/>
<stop offset="0.0799833" stop-color="#860101"/>
<stop offset="0.1788" stop-color="#950304"/>
<stop offset="0.2874" stop-color="#AF0809"/>
<stop offset="0.4031" stop-color="#D20D11"/>
<stop offset="0.5234" stop-color="#FE151A"/>
<stop offset="0.5258" stop-color="#FF151A"/>
<stop offset="0.6156" stop-color="#EC0F12"/>
<stop offset="0.761" stop-color="#D30708"/>
<stop offset="0.8934" stop-color="#C30202"/>
<stop offset="1" stop-color="#BE0000"/>
</linearGradient>
<linearGradient id="paint6_linear_437_191" x1="141.3" y1="38.5177" x2="148.573" y2="38.5177" gradientUnits="userSpaceOnUse">
<stop stop-color="#810000"/>
<stop offset="0.0799833" stop-color="#860101"/>
<stop offset="0.1788" stop-color="#950304"/>
<stop offset="0.2874" stop-color="#AF0809"/>
<stop offset="0.4031" stop-color="#D20D11"/>
<stop offset="0.5234" stop-color="#FE151A"/>
<stop offset="0.5258" stop-color="#FF151A"/>
<stop offset="0.6156" stop-color="#EC0F12"/>
<stop offset="0.761" stop-color="#D30708"/>
<stop offset="0.8934" stop-color="#C30202"/>
<stop offset="1" stop-color="#BE0000"/>
</linearGradient>
</defs>
</svg>
