<svg id="Layer_1" data-name="Layer 1" xmlns="http://www.w3.org/2000/svg" xmlns:xlink="http://www.w3.org/1999/xlink" viewBox="0 0 369 289.03"><defs><style>.cls-1{fill:none;}.cls-2{fill:#2a387e;}.cls-3{clip-path:url(#clip-path);}.cls-4{fill:#fff;}</style><clipPath id="clip-path"><rect class="cls-1" x="115" y="85" width="131" height="109"/></clipPath></defs><title>JABKER</title><circle class="cls-2" cx="184" cy="139.5" r="113"/><g class="cls-3"><path class="cls-4" d="M153,177.14V179c-.37,2.62.74,4.12,3,5.24,2.6,1.12,5.58,1.87,8.56.75,1.49-.75,2.6-1.12,4.09-1.87,3.35-1.88,6.7-2.25,10-.38,1.12.38,1.86,1.13,3,1.5,3,1.5,5.58,2.25,8.93.75,1.11-.75,2.6-1.12,3.72-1.87,3.35-1.88,6.7-2.63,10-.38a21.49,21.49,0,0,1,3,1.88c3,1.49,5.58,2.24,8.56.74,1.11-.74,2.6-1.12,3.72-1.87a10.19,10.19,0,0,1,10.79-.37,17,17,0,0,0,2.6,1.5c2.24,1.12,4.47,1.87,7.08,1.12a37.87,37.87,0,0,0,5.58-2.62c.37,0,.37-.38.37-.75v-4.87c-.74.37-1.12.75-1.49.75-3.35,2.24-7.07,3-10.79,1.12-.75-.37-1.86-1.12-2.61-1.5a13.88,13.88,0,0,0-6.7-1.87h-.74c3.72-12.36,7.44-24.72,11.54-37.08-4.47-1.87-8.56-3.37-12.66-4.87-7.81-3-15.25-6-23.07-9H198c-4.84,1.87-9.67,3.74-14.14,5.62-6.7,2.62-13.77,5.24-20.47,7.86-.74.38-.74.75-.74,1.5q2.22,7.31,4.46,14.61c1.86,6.37,3.72,12.36,6,18.73.37.75.37,1.87.74,2.62-2.6,0-4.84,1.87-7.07,3-3,1.49-5.58,2.24-8.56.75A33.52,33.52,0,0,0,153,177.14Zm-38-40.07V194h36.1c1.86,0,2.23-.37,2.23-1.5V138.56c0-1.12-.74-1.49-2.6-1.49H115ZM221.07,109H175.66V130.7a2.78,2.78,0,0,1,1.49-.38c6-2.24,11.91-4.49,17.86-7.11a7,7,0,0,1,6.7,0c4.84,2.24,10,4.12,14.89,6,1.49.75,3,1.12,4.47,1.87ZM153,186.88V191c0,.38.37.38.37.75,1.86.75,3.72,1.88,5.58,2.63a8.91,8.91,0,0,0,7.45-1.5l4.46-2.25c3-1.12,5.59-.38,8.56,1.12a21.74,21.74,0,0,0,5.21,2.25,9.42,9.42,0,0,0,7.82-1.5c1.86-.75,3.72-1.87,5.58-2.62,2.61-.75,5.21.37,7.44,1.87,4.47,3,8.56,3.37,13,.38a17.82,17.82,0,0,1,3.72-1.88c3-1.12,5.58,0,8.19,1.13a22.15,22.15,0,0,0,5.21,2.25c3.72,1.12,6.7-.75,9.68-2.63l.37-.37v-4.12c-.75.37-1.12.37-1.12.75-4.46,3-8.56,3-13,.37-1.12-.75-2.24-1.12-3.35-1.87a9.46,9.46,0,0,0-8.94,1.5c-3.34,2.25-7.07,3.37-11.16,1.5-1.12-.38-1.86-1.13-3-1.5-3.72-2.25-7.07-2.62-10.79-.38-.74.38-1.86,1.13-2.61,1.5-2.6,1.5-5.58,2.25-8.55.75-1.49-.75-2.61-1.12-4.1-1.87-3.35-1.88-6.7-2.25-10-.38-.74.38-1.86,1.13-2.6,1.5a9.47,9.47,0,0,1-10.79,0A6.07,6.07,0,0,0,153,186.88Zm58.8-86.52c-1.49-5.25-3-9.74-4.46-14.61-.38-.75-.75-.75-1.49-.75H190.92c-.74,0-1.12.38-1.49,1.12-.74,3-1.86,6-2.6,8.62-.75,1.87-1.12,3.75-1.86,5.62ZM224.41,106c.38-2.63.38-3-2.23-3H173.8c-.37,0-.37,0-.37.37v2.25c0,.38.74.38,1.49.38h49.49Z"/></g></svg>