<svg id="Layer_1" data-name="Layer 1" xmlns="http://www.w3.org/2000/svg" xmlns:xlink="http://www.w3.org/1999/xlink" viewBox="0 0 369 289.03"><defs><style>.cls-1{fill:none;}.cls-2{fill:#2a387e;}.cls-3{clip-path:url(#clip-path);}.cls-4{fill:#fff;}</style><clipPath id="clip-path"><rect class="cls-1" x="151" y="101" width="68" height="77"/></clipPath></defs><title>JABKER</title><circle class="cls-2" cx="184" cy="139.5" r="113"/><g class="cls-3"><path class="cls-4" d="M165.64,101A14.54,14.54,0,0,0,151,115.56v38.5a14.32,14.32,0,0,0,12.36,14.23l-7.15,7.12a1.74,1.74,0,0,0,1.3,2.91h5.85a6.78,6.78,0,0,0,3.58-1.29l8.14-8.09H194.6l8.13,8.09a4.92,4.92,0,0,0,3.58,1.29h6.18a1.74,1.74,0,0,0,1.3-2.91L207,168.62a14.63,14.63,0,0,0,12.37-14.24V115.56A14.54,14.54,0,0,0,204.68,101Zm-4.88,14.56a4.6,4.6,0,0,1,4.88-4.85h38.72a5,5,0,0,1,4.88,4.85v14.56a5,5,0,0,1-4.88,4.85H165.64a5,5,0,0,1-4.88-5.18Zm24.08,43.35a7.12,7.12,0,1,1,7.16-7.12A7,7,0,0,1,184.84,158.91Z"/></g></svg>