<svg id="Layer_1" data-name="Layer 1" xmlns="http://www.w3.org/2000/svg" xmlns:xlink="http://www.w3.org/1999/xlink" viewBox="0 0 369 289.03"><defs><style>.cls-1{fill:none;}.cls-2{fill:#2a387e;}.cls-3{clip-path:url(#clip-path);}.cls-4{fill:#fff;}</style><clipPath id="clip-path"><rect class="cls-1" x="148" y="97" width="74" height="85"/></clipPath></defs><title>JABKER</title><circle class="cls-2" cx="184" cy="139.5" r="113"/><g class="cls-3"><path class="cls-4" d="M170.28,99.81A5.5,5.5,0,0,1,175.05,97H195a5.5,5.5,0,0,1,4.77,2.81l1.19,2.4h15.92a5.29,5.29,0,0,1,5.17,5.22,5.46,5.46,0,0,1-5.57,5.61H153.17a5.22,5.22,0,0,1,0-10.43h15.92Zm-17.11,18.44h63.26v53.32a10.74,10.74,0,0,1-10.74,10.83H163.91a10.74,10.74,0,0,1-10.74-10.83Zm15.92,10.82a2.67,2.67,0,0,0-2.79,2.41v37.29a2.79,2.79,0,1,0,5.57,0V131.48A2.67,2.67,0,0,0,169.09,129.07Zm15.91,0a2.67,2.67,0,0,0-2.78,2.41v37.29a2.78,2.78,0,1,0,5.56,0V131.48A3.42,3.42,0,0,0,185,129.07Zm15.91,0a2.73,2.73,0,0,0-2.78,2.81v37.29a2.79,2.79,0,1,0,5.57,0V131.48A3.43,3.43,0,0,0,200.91,129.07Z"/></g></svg>