<svg id="Layer_1" data-name="Layer 1" xmlns="http://www.w3.org/2000/svg" xmlns:xlink="http://www.w3.org/1999/xlink" viewBox="0 0 369 289.03"><defs><style>.cls-1{fill:none;}.cls-2{fill:#2a387e;}.cls-3{clip-path:url(#clip-path);}.cls-4{fill:#fff;}</style><clipPath id="clip-path"><rect class="cls-1" x="123" y="80" width="123" height="108"/></clipPath></defs><title>JABKER</title><circle class="cls-2" cx="184" cy="139.5" r="113"/><g class="cls-3"><path class="cls-4" d="M188.6,81.52a7.94,7.94,0,0,0-8.2,0L143,108.39a6.26,6.26,0,0,0-2.57,7.61,7.29,7.29,0,0,0,6.67,4.56h3.58v15.21c.52,0,.52.51,1,.51a19.51,19.51,0,0,0,12.3,4.57c4.61,0,8.71-2,12.81-4.06a15,15,0,0,1,15.89,0,23.94,23.94,0,0,0,12.81,4.06,25.37,25.37,0,0,0,12.81-4.06c.52,0,.52-.51,1-.51V121.07h3.59a7.31,7.31,0,0,0,6.66-4.56c1-2.54,0-5.58-2.56-7.61Zm-8.2,63.89c-4.61,3-10.76,5.58-16.4,5.58a27.78,27.78,0,0,1-16.4-5.58,6.28,6.28,0,0,0-8.2.5A23.4,23.4,0,0,1,128.64,151c-3.59,1-6.15,4.56-5.13,8.11s4.61,6.08,8.2,5.07A40.58,40.58,0,0,0,144,159.1c6.15,3,13.33,5.58,20,5.58a39.4,39.4,0,0,0,16.91-4.06A17.29,17.29,0,0,0,184,159.1l3.07,1.52A38,38,0,0,0,224,159.1c3.08,1.52,7.18,4.05,12.3,5.07,3.59,1,7.18-1.52,8.2-5.07s-1.54-7.1-5.12-8.11a35.27,35.27,0,0,1-10.77-5.08,7,7,0,0,0-8.2-.5A25.66,25.66,0,0,1,205,151a27.78,27.78,0,0,1-16.4-5.58A7.94,7.94,0,0,0,180.4,145.41Zm24.6,28.9a27.78,27.78,0,0,1-16.4-5.58,7,7,0,0,0-7.69,0c-4.61,3-10.76,5.58-16.4,5.58a27.78,27.78,0,0,1-16.4-5.58,6.27,6.27,0,0,0-8.2.51,23.39,23.39,0,0,1-10.76,5.07c-3.59,1-6.15,4.56-5.13,8.11s4.62,6.09,8.2,5.07a40.33,40.33,0,0,0,12.3-5.07c6.15,3,13.33,5.58,20,5.58a39.4,39.4,0,0,0,16.91-4.06,16.33,16.33,0,0,0,3.08-1.52l3.07,1.52a38,38,0,0,0,36.9-1.52c3.08,1.52,7.18,4.06,12.3,5.07,3.59,1,7.18-1.52,8.2-5.07s-1.53-7.1-5.12-8.11a34.85,34.85,0,0,1-10.76-5.07,7,7,0,0,0-8.2-.51A25.21,25.21,0,0,1,205,174.31Z"/></g></svg>