<svg id="Layer_1" data-name="Layer 1" xmlns="http://www.w3.org/2000/svg" xmlns:xlink="http://www.w3.org/1999/xlink" viewBox="0 0 369 289.03"><defs><style>.cls-1{fill:none;}.cls-2{fill:#2a387e;}.cls-3{clip-path:url(#clip-path);}.cls-4{fill:#fff;}</style><clipPath id="clip-path"><rect class="cls-1" x="137" y="81" width="95" height="106"/></clipPath></defs><title>JABKER</title><circle class="cls-2" cx="184" cy="139.5" r="113"/><g class="cls-3"><path class="cls-4" d="M148,187H137V129.22a46.75,46.75,0,0,1,4.92-21.43c9.08-18.75,28-28.7,48.45-26.41A46.19,46.19,0,0,1,215,92.1c11.35,10,17,22.19,17,37.5V187H221a1.45,1.45,0,0,0-.37-1.15c-4.55-13-9.09-25.64-13.25-38.65,0-.38-.38-1.15-.38-1.53V133.81c0-8.42-3.78-14.93-10.6-19.52a23.21,23.21,0,0,0-10.22-3.44v3.06h-3v-3.44c-1.52.38-3,.38-4.55.76-10.22,3.06-16.65,11.48-16.65,22.2v11.48a2.32,2.32,0,0,1-.38,1.53c-4.54,13.77-9.08,26.78-13.25,39.8C148,186.24,148,186.62,148,187Z"/><path class="cls-4" d="M179.77,187c0-2.68.38-5.36.38-8h8.7c0,2.68.38,5.36.38,8Z"/><path class="cls-4" d="M181.28,151.79h6.44c.38,5.74.38,11.48.75,17.22h-7.94C180.9,163.27,180.9,157.53,181.28,151.79Z"/><path class="cls-4" d="M187.34,141.46h-5.68c.38-5.74.38-11.48.76-17.22h3.78Z"/></g></svg>